<svg xmlns="http://www.w3.org/2000/svg" viewBox="0 0 1200 675" role="img" aria-labelledby="title desc">
  <title id="title">Social feed pipeline</title><desc id="desc">A HUD-style data pipeline illustration.</desc>
  <rect width="1200" height="675" fill="#050505"/><g stroke="#1f2937" opacity=".75"><path d="M0 110h1200M0 220h1200M0 330h1200M0 440h1200M0 550h1200"/><path d="M120 0v675M240 0v675M360 0v675M480 0v675M600 0v675M720 0v675M840 0v675M960 0v675M1080 0v675"/></g>
  <rect x="70" y="70" width="1060" height="535" rx="18" fill="none" stroke="#22c55e" stroke-opacity=".5"/><text x="102" y="120" fill="#22c55e" font-family="monospace" font-size="24">INGESTION_PIPELINE // 02</text>
  <g fill="#0c1511" stroke="#22c55e" stroke-width="4"><rect x="130" y="245" width="220" height="135" rx="12"/><rect x="490" y="245" width="220" height="135" rx="12"/><rect x="850" y="245" width="220" height="135" rx="12"/></g><g stroke="#3b82f6" stroke-width="7" fill="none"><path d="M350 312h140M710 312h140"/><path d="m455 292 35 20-35 20M815 292l35 20-35 20"/></g><g fill="#e5e7eb" font-family="monospace" font-size="24" text-anchor="middle"><text x="240" y="300">SOURCE</text><text x="240" y="340">ADAPTERS</text><text x="600" y="300">NORMALIZE</text><text x="600" y="340">&amp; DEDUPE</text><text x="960" y="300">MONGO</text><text x="960" y="340">+ API</text></g><text x="95" y="555" fill="#e5e7eb" font-family="sans-serif" font-size="56" font-weight="700">FEED_PIPELINE</text><circle cx="1040" cy="120" r="8" fill="#3b82f6"/><text x="1058" y="128" fill="#60a5fa" font-family="monospace" font-size="18">CURSOR_READY</text>
</svg>
