<svg xmlns="http://www.w3.org/2000/svg" viewBox="0 0 1200 675" role="img" aria-labelledby="title desc">
  <title id="title">Static deployment pipeline</title><desc id="desc">A HUD-style Git to build to deployment illustration.</desc>
  <rect width="1200" height="675" fill="#050505"/><g stroke="#1f2937" opacity=".75"><path d="M0 110h1200M0 220h1200M0 330h1200M0 440h1200M0 550h1200"/><path d="M120 0v675M240 0v675M360 0v675M480 0v675M600 0v675M720 0v675M840 0v675M960 0v675M1080 0v675"/></g>
  <rect x="70" y="70" width="1060" height="535" rx="18" fill="none" stroke="#a855f7" stroke-opacity=".5"/><text x="102" y="120" fill="#c084fc" font-family="monospace" font-size="24">DELIVERY_PIPELINE // 03</text>
  <g fill="#100b17" stroke="#a855f7" stroke-width="4"><rect x="125" y="250" width="210" height="125" rx="12"/><rect x="495" y="250" width="210" height="125" rx="12"/><rect x="865" y="250" width="210" height="125" rx="12"/></g><g stroke="#3b82f6" stroke-width="7" fill="none"><path d="M335 312h160M705 312h160"/><path d="m455 292 35 20-35 20M825 292l35 20-35 20"/></g><g fill="#e5e7eb" font-family="monospace" font-size="24" text-anchor="middle"><text x="230" y="300">GIT PUSH</text><text x="230" y="340">COMMIT</text><text x="600" y="300">ASTRO</text><text x="600" y="340">BUILD</text><text x="970" y="300">VERCEL</text><text x="970" y="340">DEPLOY</text></g><text x="95" y="555" fill="#e5e7eb" font-family="sans-serif" font-size="56" font-weight="700">STATIC_DEPLOY</text><circle cx="1040" cy="120" r="8" fill="#22c55e"/><text x="1058" y="128" fill="#22c55e" font-family="monospace" font-size="18">PRODUCTION</text>
</svg>
