<svg xmlns="http://www.w3.org/2000/svg" viewBox="0 0 1200 675" role="img" aria-labelledby="title desc">
  <title id="title">Zero knowledge security</title><desc id="desc">A HUD-style lock and browser security illustration.</desc>
  <rect width="1200" height="675" fill="#050505"/><g stroke="#1f2937" opacity=".75"><path d="M0 110h1200M0 220h1200M0 330h1200M0 440h1200M0 550h1200"/><path d="M120 0v675M240 0v675M360 0v675M480 0v675M600 0v675M720 0v675M840 0v675M960 0v675M1080 0v675"/></g>
  <rect x="70" y="70" width="1060" height="535" rx="18" fill="none" stroke="#3b82f6" stroke-opacity=".5"/><path d="M102 150h260" stroke="#3b82f6" stroke-width="4"/><text x="102" y="120" fill="#60a5fa" font-family="monospace" font-size="24">SECURITY_LAYER // 01</text>
  <rect x="455" y="225" width="290" height="235" rx="28" fill="#0b1220" stroke="#a855f7" stroke-width="6"/><path d="M515 225v-52c0-48 38-87 85-87s85 39 85 87v52" fill="none" stroke="#3b82f6" stroke-width="25" stroke-linecap="round"/><circle cx="600" cy="335" r="32" fill="#3b82f6"/><path d="M600 360v48" stroke="#e5e7eb" stroke-width="14" stroke-linecap="round"/><text x="95" y="555" fill="#e5e7eb" font-family="sans-serif" font-size="56" font-weight="700">ZERO_KNOWLEDGE</text><circle cx="1040" cy="120" r="8" fill="#22c55e"/><text x="1058" y="128" fill="#22c55e" font-family="monospace" font-size="18">CLIENT_SIDE</text>
</svg>
